<mxfile host="app.diagrams.net" modified="2023-10-25T07:41:27.881Z" agent="Mozilla/5.0 (Windows NT 10.0; Win64; x64; rv:108.0) Gecko/20100101 Firefox/108.0" version="22.0.7" etag="ltNzeXhO-OSYkOfkrYF9" type="github">
  <diagram name="Page-1" id="CEs_sIscDffsuypr4AUM">
    <mxGraphModel>
      <root>
        <mxCell id="0" />
        <mxCell id="1" parent="0" />
      </root>
    </mxGraphModel>
  </diagram>
</mxfile>
